<svg xmlns="http://www.w3.org/2000/svg" viewBox="0 0 980 390" role="img" aria-labelledby="title desc">
  <title id="title">Canvia Medical Cannabis Clinic</title>
  <desc id="desc">Canvia full logo with medical cannabis clinic strapline.</desc>
  <defs>
    <linearGradient id="wordGradient" x1="0" y1="0" x2="980" y2="390" gradientUnits="userSpaceOnUse">
      <stop offset="0" stop-color="#0f473b" />
      <stop offset="0.5" stop-color="#123f35" />
      <stop offset="1" stop-color="#0a2f28" />
    </linearGradient>
    <linearGradient id="leafGradient" x1="670" y1="18" x2="825" y2="150" gradientUnits="userSpaceOnUse">
      <stop offset="0" stop-color="#a7c282" />
      <stop offset="0.58" stop-color="#6f945f" />
      <stop offset="1" stop-color="#294f3f" />
    </linearGradient>
  </defs>
  <rect width="980" height="390" fill="none" />
  <g stroke="#ffffff" stroke-width="2.4" stroke-linejoin="round" opacity="0.98">
    <text x="24" y="230" font-family="Inter, Montserrat, Arial, sans-serif" font-size="142" font-weight="300" letter-spacing="53" fill="url(#wordGradient)">CANVIA</text>
  </g>
  <g stroke="#ffffff" stroke-width="4" stroke-linejoin="round">
    <path d="M760 18C788 56 789 94 760 130C731 94 732 56 760 18Z" fill="url(#leafGradient)" />
    <path d="M724 132C685 127 662 106 654 68C696 68 724 88 739 126C734 130 729 132 724 132Z" fill="url(#leafGradient)" />
    <path d="M796 132C835 127 858 106 866 68C824 68 796 88 781 126C786 130 791 132 796 132Z" fill="url(#leafGradient)" />
  </g>
  <line x1="335" y1="285" x2="645" y2="285" stroke="#86a66f" stroke-width="5" stroke-linecap="round" />
  <text x="490" y="350" text-anchor="middle" font-family="Inter, Montserrat, Arial, sans-serif" font-size="40" font-weight="400" letter-spacing="18" fill="#1f3f34" stroke="#ffffff" stroke-width="1.4" paint-order="stroke">MEDICAL CANNABIS CLINIC</text>
</svg>
