<svg xmlns="http://www.w3.org/2000/svg" viewBox="0 0 1045 467" role="img" aria-labelledby="title desc">
  <title id="title">Canvia Medical Cannabis Clinic</title>
  <desc id="desc">Canvia full logo with medical cannabis clinic strapline.</desc>
  <defs>
    <linearGradient id="wordGradient" x1="0" y1="80" x2="1045" y2="300" gradientUnits="userSpaceOnUse">
      <stop offset="0" stop-color="#063d35" />
      <stop offset="0.45" stop-color="#0c453a" />
      <stop offset="1" stop-color="#072f2a" />
    </linearGradient>
    <linearGradient id="leafGradient" x1="700" y1="0" x2="895" y2="135" gradientUnits="userSpaceOnUse">
      <stop offset="0" stop-color="#a4bf82" />
      <stop offset="0.52" stop-color="#789b61" />
      <stop offset="1" stop-color="#31583f" />
    </linearGradient>
    <filter id="shadow" x="-10%" y="-10%" width="120%" height="120%">
      <feDropShadow dx="0" dy="2" stdDeviation="2" flood-color="#001f19" flood-opacity="0.32" />
    </filter>
  </defs>
  <rect width="1045" height="467" fill="none" />
  <g font-family="Montserrat, Inter, Arial, sans-serif" font-size="188" font-weight="300" fill="url(#wordGradient)" stroke="#ffffff" stroke-width="3.2" paint-order="stroke" stroke-linejoin="round" filter="url(#shadow)">
    <text x="24" y="285">C</text>
    <text x="215" y="285">A</text>
    <text x="395" y="285">N</text>
    <text x="590" y="285">V</text>
    <text x="755" y="285">I</text>
    <text x="875" y="285">A</text>
  </g>
  <g stroke="#ffffff" stroke-width="4" stroke-linejoin="round" filter="url(#shadow)">
    <path d="M794 5C824 47 826 90 794 132C762 90 764 47 794 5Z" fill="url(#leafGradient)" />
    <path d="M755 134C713 129 688 106 680 66C725 66 756 88 772 128C766 132 761 134 755 134Z" fill="url(#leafGradient)" />
    <path d="M833 134C875 129 900 106 908 66C863 66 832 88 816 128C822 132 827 134 833 134Z" fill="url(#leafGradient)" />
  </g>
  <line x1="370" y1="338" x2="675" y2="338" stroke="#86a66f" stroke-width="5" stroke-linecap="round" filter="url(#shadow)" />
  <text x="522" y="432" text-anchor="middle" font-family="Montserrat, Inter, Arial, sans-serif" font-size="39" font-weight="400" letter-spacing="13" fill="#163d32" stroke="#ffffff" stroke-width="1.6" paint-order="stroke" filter="url(#shadow)">MEDICAL CANNABIS CLINIC</text>
</svg>
